<?xml version="1.0" encoding="UTF-8" standalone="no"?>
<!-- Svg Vector Icons : http://www.onlinewebfonts.com/icon -->

<svg
   version="1.1"
   x="0px"
   y="0px"
   viewBox="0 0 1000 1000"
   style="enable-background=new 0 0 1000 1000"
   xml:space="preserve"
   fill="#00FFFF"
   id="svg18"
   sodipodi:docname="dyskietka.svg"
   inkscape:version="1.1.2 (0a00cf5339, 2022-02-04, custom)"
   xmlns:inkscape="http://www.inkscape.org/namespaces/inkscape"
   xmlns:sodipodi="http://sodipodi.sourceforge.net/DTD/sodipodi-0.dtd"
   xmlns:xlink="http://www.w3.org/1999/xlink"
   xmlns="http://www.w3.org/2000/svg"
   xmlns:svg="http://www.w3.org/2000/svg"><defs
   id="defs22"><linearGradient
     inkscape:collect="always"
     id="linearGradient843"><stop
       style="stop-color:#000000;stop-opacity:1;"
       offset="0"
       id="stop839" /><stop
       style="stop-color:#000000;stop-opacity:0;"
       offset="1"
       id="stop841" /></linearGradient><linearGradient
     inkscape:collect="always"
     xlink:href="#linearGradient843"
     id="linearGradient849"
     x1="9.0038967"
     y1="500"
     x2="990.99042"
     y2="500"
     gradientUnits="userSpaceOnUse" /></defs><sodipodi:namedview
   id="namedview20"
   pagecolor="#ffffff"
   bordercolor="#666666"
   borderopacity="1.0"
   inkscape:pageshadow="2"
   inkscape:pageopacity="0.0"
   inkscape:pagecheckerboard="0"
   showgrid="false"
   inkscape:zoom="1.2232947"
   inkscape:cx="257.91005"
   inkscape:cy="137.74277"
   inkscape:window-width="1920"
   inkscape:window-height="1004"
   inkscape:window-x="1600"
   inkscape:window-y="0"
   inkscape:window-maximized="1"
   inkscape:current-layer="svg18" />
<metadata
   id="metadata2"> Svg Vector Icons : http://www.onlinewebfonts.com/icon </metadata>
<g
   id="g16"
   style="stroke-width:2;stroke-miterlimit:4;stroke-dasharray:none;stroke:url(#linearGradient849)"><g
     transform="translate(0.000000,512.000000) scale(0.100000,-0.100000)"
     id="g14"
     style="stroke-width:20;stroke-miterlimit:4;stroke-dasharray:none;stroke:url(#linearGradient849)"><path
       d="M564.8,4999.2c-90-23-254.6-118.7-306.3-180c-26.8-32.5-70.8-101.5-99.6-155.1l-51.7-97.6l-5.7-4413c-3.8-4003.3-1.9-4422.5,26.8-4510.6c45.9-147.4,149.3-271.9,294.8-350.4l124.4-68.9h4451.3h4451.3l120.6,65.1c134,72.7,191.4,132.1,268,277.6l51.7,97.6l5.7,3762l3.8,3762l-913.2,913.2l-915.1,915.1h-386.7h-388.6l-3.8-1280.8c-5.7-1259.8-5.7-1282.7-45.9-1334.4c-21.1-28.7-63.2-70.8-91.9-91.9c-51.7-40.2-57.4-40.2-2538.7-40.2c-2481.2,0-2487,0-2538.7,40.2c-28.7,21.1-70.8,63.2-91.9,91.9c-40.2,51.7-40.2,74.7-45.9,1334.4l-3.8,1280.8l-656.7-1.9C919,5012.6,597.3,5006.8,564.8,4999.2z M8533,678.1c28.7-21.1,70.8-63.2,91.9-91.9c40.2-51.7,40.2-59.4,40.2-2308.9c0-2249.6,0-2257.2-40.2-2308.9c-21.1-28.7-63.2-70.8-91.9-91.9l-51.7-40.2H4998.8H1516.3l-51.7,40.2c-28.7,21.1-70.8,63.2-91.9,91.9c-40.2,51.7-40.2,65.1-45.9,2257.2c-1.9,1213.8,0,2232.3,5.7,2266.8c13.4,76.6,93.8,174.2,172.3,208.7c47.9,21.1,670.1,24.9,3517,21.1l3459.5-3.8L8533,678.1z"
       id="path4"
       style="stroke-width:20;stroke-miterlimit:4;stroke-dasharray:none;stroke:url(#linearGradient849)" /><path
       d="M2423.8-217.9c-128.3-55.5-201-202.9-174.2-346.5c17.2-90,113-195.3,199.1-220.2c49.8-15.3,859.6-19.2,2592.3-15.3c2511.9,5.7,2521.4,5.7,2573.1,45.9c101.5,74.7,132.1,135.9,132.1,256.5c0,120.6-30.6,181.9-132.1,256.6c-51.7,40.2-59.3,40.2-2592.2,44C2938.8-193,2471.7-196.9,2423.8-217.9z"
       id="path6"
       style="stroke-width:20;stroke-miterlimit:4;stroke-dasharray:none;stroke:url(#linearGradient849)" /><path
       d="M2423.8-1443.2c-128.3-55.5-201-202.9-174.2-346.5c17.2-90,113-195.3,199.1-220.2c49.8-15.3,859.6-19.2,2592.3-15.3c2511.9,5.7,2521.4,5.7,2573.1,45.9c101.5,74.7,132.1,135.9,132.1,256.6s-30.6,181.9-132.1,256.6c-51.7,40.2-59.3,40.2-2592.2,44C2938.8-1418.3,2471.7-1422.1,2423.8-1443.2z"
       id="path8"
       style="stroke-width:20;stroke-miterlimit:4;stroke-dasharray:none;stroke:url(#linearGradient849)" /><path
       d="M2423.8-2668.5c-128.3-55.5-201-202.9-174.2-346.5c17.2-90,113-195.3,199.1-220.2c49.8-15.3,859.6-19.2,2592.3-15.3c2511.9,5.7,2521.4,5.7,2573.1,45.9c101.5,74.7,132.1,135.9,132.1,256.5c0,120.6-30.6,181.9-132.1,256.6c-51.7,40.2-59.3,40.2-2592.2,44C2938.8-2643.6,2471.7-2647.4,2423.8-2668.5z"
       id="path10"
       style="stroke-width:20;stroke-miterlimit:4;stroke-dasharray:none;stroke:url(#linearGradient849)" /><path
       d="M5152,3992.1V2965.9l47.9-45.9l45.9-47.9h518.8h518.8l46,47.9l47.9,45.9v1026.2v1024.3h-612.7H5152V3992.1z"
       id="path12"
       style="stroke-width:20;stroke-miterlimit:4;stroke-dasharray:none;stroke:url(#linearGradient849)" /></g></g>
</svg>
